<svg xmlns="http://www.w3.org/2000/svg" viewBox="0 0 2871.8 1149.51"><defs><style>.a{fill:#e7f7f2;}.b{fill:#97af9a;}.c{fill:#233862;}.d{fill:#e69d43;}.e{fill:#e78b37;}.f{fill:#d57912;}.g{fill:#b65615;}.h{fill:#f59040;}.i{fill:#d36e2a;}.j{fill:#dce7f9;}.k{fill:#a2d680;}.l{fill:#d15050;}.m{fill:#a03c37;}.n{fill:#b64c41;}.o{fill:#fff;}.p{fill:#898682;}.q{fill:#082524;}.r{fill:#91cecf;}.s{fill:#69abb2;}.t{fill:#2b478b;}.u{fill:#ffb07b;}.v{fill:#abddda;}.w{fill:#ea8e50;}.x{fill:#8e5132;}.y{fill:#2c3a64;}.z{fill:#a37857;}.aa{fill:#8c6951;}.ab{fill:#ffb27d;}.ac{fill:#ed975d;}.ad{fill:#579fa3;}.ae{fill:#86d1cd;}.af{fill:#2e3552;}</style></defs><path class="a" d="M234.27,1142.39S-129.35,847.09,83.13,513.7C220.24,298.56,634.9,281.16,855,412.51c93.76,55.94,323.08,239,512.53-179.56C1589-256.35,2876.37,98.11,2632,624c-149.33,321.38,424.1,228.5,149.45,518.38Z"/><polygon class="b" points="1640.55 413.09 901.14 413.09 901.14 974.8 1641.04 974.8 1640.55 413.09"/><polygon class="c" points="1613.31 432.32 783.64 432.32 783.64 974.8 1613.43 974.8 1613.31 432.32"/><rect class="d" x="1211.2" y="871.14" width="102.24" height="103.66" transform="translate(2524.64 1845.94) rotate(180)"/><polygon class="e" points="1211.2 974.8 1313.44 974.8 1313.44 871.14 1290.54 871.14 1211.2 974.8"/><rect class="f" x="1309.18" y="871.14" width="61.88" height="103.66" transform="translate(2680.25 1845.94) rotate(180)"/><rect class="d" x="1205.77" y="740.9" width="169.54" height="131.66" transform="translate(2581.09 1613.46) rotate(180)"/><polygon class="e" points="1205.77 872.56 1375.32 872.56 1375.32 740.9 1343.51 740.9 1205.77 872.56"/><rect class="f" x="1371.06" y="740.9" width="46.81" height="131.66" transform="translate(2788.93 1613.46) rotate(180)"/><rect class="g" x="264.31" y="908.61" width="237.61" height="105.39" rx="9.65"/><circle class="c" cx="1184.83" cy="1048.81" r="95.25" transform="translate(1.85 2099.72) rotate(-83.13)"/><circle class="c" cx="1502.73" cy="1048.81" r="95.25" transform="translate(200.19 2337.84) rotate(-79.61)"/><circle class="c" cx="343.65" cy="1048.81" r="95.25" transform="translate(-756.32 1139.25) rotate(-76.56)"/><path class="h" d="M295.57,1048.81a48.08,48.08,0,1,1,48.08,48.08A48.08,48.08,0,0,1,295.57,1048.81Z"/><path class="i" d="M375.65,1013a48.07,48.07,0,0,1-75.86,55.54A48.07,48.07,0,1,0,375.65,1013Z"/><path class="g" d="M328.74,1048.81a14.91,14.91,0,1,1,14.91,14.91A14.91,14.91,0,0,1,328.74,1048.81Z"/><path class="g" d="M312.52,1074.35a5.77,5.77,0,1,1,5.77,5.77A5.77,5.77,0,0,1,312.52,1074.35Z"/><path class="g" d="M305.79,1031.51a5.77,5.77,0,1,1,5.77,5.77A5.77,5.77,0,0,1,305.79,1031.51Z"/><path class="g" d="M369.25,1031.51a5.77,5.77,0,1,1,5.77,5.77A5.77,5.77,0,0,1,369.25,1031.51Z"/><path class="g" d="M364.44,1074.35a5.77,5.77,0,1,1,5.77,5.77A5.77,5.77,0,0,1,364.44,1074.35Z"/><path class="g" d="M337.88,1012.08a5.77,5.77,0,1,1,5.77,5.77A5.77,5.77,0,0,1,337.88,1012.08Z"/><path class="i" d="M1135,1048.81a48.08,48.08,0,1,1,48.07,48.08A48.07,48.07,0,0,1,1135,1048.81Z"/><path class="g" d="M1168.15,1048.81a14.91,14.91,0,1,1,14.9,14.91A14.9,14.9,0,0,1,1168.15,1048.81Z"/><path class="g" d="M1151.92,1074.35a5.77,5.77,0,1,1,5.77,5.77A5.78,5.78,0,0,1,1151.92,1074.35Z"/><path class="g" d="M1149.76,1031.51a5.77,5.77,0,1,1,5.77,5.77A5.77,5.77,0,0,1,1149.76,1031.51Z"/><path class="g" d="M1203.84,1074.35a5.77,5.77,0,1,1,5.77,5.77A5.78,5.78,0,0,1,1203.84,1074.35Z"/><path class="g" d="M1147.73,1012.08a5.77,5.77,0,1,1,5.77,5.77A5.77,5.77,0,0,1,1147.73,1012.08Z"/><circle class="c" cx="662.64" cy="1048.81" r="95.25" transform="translate(-459.42 1578.05) rotate(-82.97)"/><path class="f" d="M342.59,534.51s14.43-78.6,123.49-78.6l1.6,84.34Z"/><path class="d" d="M647.06,890.66H233.4l34.43-279.41a90.62,90.62,0,0,1,89.94-79.53H647.06Z"/><path class="f" d="M406.6,719.86h-116L306,609.53A46,46,0,0,1,351.5,569.9h58.69Z"/><path class="j" d="M398,711.56H321.65A19.07,19.07,0,0,1,302.75,690l10.14-76.33c2.68-20.17,19.11-35.17,38.52-35.17h49.65Z"/><rect class="b" x="462.42" y="413.09" width="795.64" height="561.7"/><polygon class="k" points="1226.91 953.49 491.63 953.49 491.63 434.4 1227.87 434.4 1227.87 854.06 1226.91 953.49"/><path class="f" d="M485.8,890.66H233.4C211.17,892.14,209,903.13,209,903.13l-21.59,104.39c0,3.57,3.28,6.49,7.29,6.49h63.46c4,0,6.9-2.94,8.61-6.66,0,0,9.77-12.06,16.32-16.38,16.4-10.82,34.22-17.91,60.53-17.91,32.35,0,60.93,10.29,78.15,26h64c7.73,0,14.05-4,14.05-9v-90.5C499.85,894.7,493.53,890.66,485.8,890.66Z"/><path class="l" d="M1327.76,1095.59h-80a74.44,74.44,0,0,0-10-25.76c-24.19-38.76-80.74-50.61-113-54.23a233.25,233.25,0,0,0-23.57-1.59h137.51c36,4.87,58,24.49,71.21,43.26A117.49,117.49,0,0,1,1327.76,1095.59Z"/><path class="l" d="M1644.4,1095.59h-80a74.41,74.41,0,0,0-12-28.82c-36.53-52.69-134.5-52.76-134.5-52.76h137.51c30.08,4.07,50.44,18.46,64,34A118.9,118.9,0,0,1,1644.4,1095.59Z"/><path class="m" d="M1310,1057.27s-52.64-11.1-72.2,12.56c-24.19-38.76-80.74-50.61-113-54.23l-1.94-1.59h115.88C1274.7,1018.88,1296.79,1038.5,1310,1057.27Z"/><path class="m" d="M1619.39,1048.05h0s-44-1-67,18.71c-36.53-52.69-134.5-52.76-134.5-52.76h137.51C1585.46,1018.08,1605.82,1032.47,1619.39,1048.05Z"/><rect class="m" x="469.74" y="974.8" width="1194.42" height="54.48" rx="10.71"/><rect class="m" x="520.28" y="988.48" width="237.61" height="120.66" rx="10.32"/><path class="n" d="M240.93,665.79s-10.34,55.57-9.83,64.63,9.07,13.48,15.57,13.48Z"/><rect class="f" x="240.51" y="661.15" width="38.5" height="82.75" rx="6.68"/><rect class="j" x="244.79" y="665.79" width="31.31" height="74.09" rx="5.7"/><path class="n" d="M259.76,662.66a1.41,1.41,0,0,1-1.29-1.51V637.79c0-.06,0-.12,0-.18s1.6-13.43,15.6-13c12.79.39,18.31,0,18.36,0A1.37,1.37,0,0,1,293.8,626a1.44,1.44,0,0,1-1.2,1.6c-.22,0-5.68.4-18.59,0-11.27-.34-12.83,9.2-13,10.28v23.25A1.4,1.4,0,0,1,259.76,662.66Z"/><path class="f" d="M395.85,755.82h-23.4a6,6,0,0,1-6-6h0a6,6,0,0,1,6-6h23.4a6,6,0,0,1,6,6h0A6,6,0,0,1,395.85,755.82Z"/><rect class="d" x="1343.51" y="871.85" width="102.24" height="102.24" transform="translate(2789.25 1845.94) rotate(180)"/><polygon class="e" points="1343.51 974.8 1445.74 974.8 1445.74 871.85 1424.01 871.85 1343.51 951.55 1343.51 974.8"/><rect class="f" x="1441.49" y="871.85" width="46.81" height="102.95" transform="translate(2929.78 1846.65) rotate(180)"/><polygon class="o" points="1008.95 856.2 1008.95 932.89 1087.63 932.89 1087.63 937.23 1004.61 937.23 1004.61 851.86 1087.63 851.86 1087.63 856.2 1008.95 856.2"/><path class="p" d="M1090.34,882.58h18.49v3.81h-14.72v10.88h13.77v3.84h-13.77v15h-3.75Z"/><path class="p" d="M1112.72,916.15V880.7h3.64v35.45Z"/><path class="p" d="M1140.54,903.86c0,7.06-3.46,12.87-9.87,12.87-6,0-9.64-5.43-9.64-12.78s3.56-12.86,9.88-12.86C1136.73,891.09,1140.54,896.18,1140.54,903.86Zm-15.78,0c0,5.37,2.29,9.29,6.06,9.29s6-3.71,6-9.27-2.14-9.3-6.07-9.3S1124.76,898.32,1124.76,903.91Z"/><path class="p" d="M1163.52,903.86c0,7.06-3.46,12.87-9.87,12.87-6,0-9.64-5.43-9.64-12.78s3.56-12.86,9.88-12.86C1159.71,891.09,1163.52,896.18,1163.52,903.86Zm-15.78,0c0,5.37,2.3,9.29,6.07,9.29s6-3.72,6-9.27-2.12-9.3-6.08-9.3S1147.74,898.32,1147.74,903.91Z"/><path class="p" d="M1168.26,898.32c0-3.42,0-5.35,0-6.65h3.55c0,.68.11,2.61.11,5a7.52,7.52,0,0,1,7.06-5.57v4.23c-4.33.13-7.08,2.75-7.08,9v11.86h-3.6Z"/><path class="p" d="M1184.68,909.15a4.91,4.91,0,0,0,5.14,4.23c3.08,0,4.29-1.55,4.29-3.77s-1-3.35-5-4.49c-6-1.7-7.24-3.84-7.24-7.16,0-3.47,2.18-6.89,7.57-6.89s7.62,3.69,7.92,7.09h-3.5a4.3,4.3,0,0,0-4.55-3.79c-2.94,0-3.81,1.65-3.81,3.25,0,1.84.86,2.74,4.7,3.81,6.36,1.76,7.63,4.24,7.63,7.88,0,4.29-2.91,7.41-8.13,7.41-5.43,0-8.09-3.18-8.63-7.58Z"/><ellipse class="q" cx="1025.12" cy="884.14" rx="6.86" ry="6.38"/><polygon class="q" points="1033.86 909.1 1033.86 916.15 1016.36 916.15 1016.36 909.1 1019.08 909.1 1019.08 898.99 1016.36 898.99 1016.36 892.49 1032.31 892.49 1032.31 909.1 1033.86 909.1"/><path class="q" d="M1088,909.1v7h-14.49V902.46c-.32-1.63-.46-2.31-2.4-2.52a4.64,4.64,0,0,0-3.36,1.59v7.59H1070v7h-14.52V902.46c-.31-1.63-.45-2.31-2.39-2.52s-3.75,2-3.75,2v7.19h2.27v7h-16.49v-7h2v-9.16h-2v-7.45h14.21v3.73s2.88-4.48,9.93-4.21c5,.2,7.25,3.18,8.08,5.22a10.83,10.83,0,0,1,9.92-5.22c7.06.27,8.7,6.23,8.45,7V909.1Z"/><path class="r" d="M1815.07,895.55c2-4.31.92-6.62.92-6.62s-46-17.06-50.49-18.21c-3-.78-37.56-15.14-54.83-25.19-8.57-5-15.22.38-23.06,5.86l-6.45,4.51c-7.79,5.45-5.89,18.31,3.22,21.75,25.66,9.68,65.28,16.87,72.84,18.65,18.77,4.4,52.94,5.56,52.94,5.56A20.26,20.26,0,0,0,1815.07,895.55Z"/><path class="s" d="M1956.84,894.94l-6.18.35s-10.92-4.17-16.65,7.19c0,0-2,4.86,1.79,5.09s2.37-.41,7.72,0,10.42-1.61,12.16-5.14l3.38-2.87Z"/><path class="s" d="M1952.31,899.36c-1.33-4.25-1-4.93-1-4.93s37.72-20.28,41.18-22.34,42.49-43.4,42.49-43.4l39.86,11.07s-61.83,46.87-70.69,51.91c-14.64,8.33-48.5,13-48.5,13A12.31,12.31,0,0,1,1952.31,899.36Z"/><path class="f" d="M1995.71,926.82l-156.16,33.24-36.2-170,156.17-33.24Z"/><path class="d" d="M1929.18,941l-114.27,24.32-36.2-170L1893,771Z"/><path class="e" d="M1929.18,941l-114.27,24.32-7-32.88L1874.06,775l18.92-4Z"/><path class="c" d="M1848.1,1119.21s6.08,6.72,20.2,3.07c0,0,11.39-2.6,13.89,3.08,0,0-14.33,9.07-18.75,11.49a53.26,53.26,0,0,0-9.27,7,4.57,4.57,0,0,1-6.63-.51c-.77-1-1.64-2.07-2.61-3.38-2.69-3.65-9-15.43-9-15.43Z"/><path class="t" d="M1853.51,1115.71s-5.62,12.94-18.57,10.56c0,0-26.44-21.83-44.57-44.51-5.89-7.37-10.91-14.83-13.85-21.65-12-27.84-44.48-69.36-65.12-90.41L1763,951s16.54,33.27,38.54,74.13C1817.43,1054.59,1836.12,1088,1853.51,1115.71Z"/><path class="c" d="M1801.57,1025.15l-11.2,56.61c-5.89-7.37-10.91-14.83-13.85-21.65-12-27.84-44.48-69.36-65.12-90.41L1763,951S1779.57,984.29,1801.57,1025.15Z"/><path class="c" d="M1759.37,1126.72s-.56,10.33,12,11.71c0,0,7.56.15,7.58,6.72h-36.79a28.51,28.51,0,0,1-1.31-8.33c-.2-4.36,4.23-15.76,4.23-15.76Z"/><path class="t" d="M1746.1,951s23,25.28,37.6,70.81c7.94,24.77-14.56,87.06-19,108.7,0,0-15.1,1.28-25.42-2.71,0,0-.78-44.7,5.25-79.15,3.38-19.28-30.28-41.23-45-76.07-10-23.7,2.17-23.3,17.13-23.87Z"/><path class="u" d="M1719.54,838.27c-12.79,7.22-39,.56-39,.56s10.64-12.16,5.8-31.75l10.05,5.1,10.79,5.48a89.67,89.67,0,0,1,1.19,9.68c.12,1.6.23,3.38.31,5.34A33.48,33.48,0,0,1,1719.54,838.27Z"/><path class="v" d="M1766.47,949.72c0,2.25-2.59,3.32-3.14,3.43-5.17,1-19.58,6.55-32.56,7.84-10.93,1.14-21.08,0-32.23-2.18-1.48-.3-4.94-1.24-5.19-2.65s-43-87-9.81-123.78c.78-.86,7.33.69,13.32,2.12a24.63,24.63,0,0,0,15.15-1.24l5.61,3c6.91,3.85,20,17.51,21.49,28.23.78,5.45,3.9,9.49,4.8,14.29q.49,2.65,1,5.19c.68,3.31,1.38,6.47,2.1,9.46,2,8.11,4,15.09,6,21.12,2.16,6.4,4.27,11.73,6.15,16.18,2.45,5.78,4.52,10.1,5.81,13.4A16.64,16.64,0,0,1,1766.47,949.72Z"/><path class="r" d="M1765,944.08c-60.27-28.39-81.15-82.93-81.15-82.93s48.55,16,60.63,20.66c.68,3.31,1.8,8.58,2.52,11.57,2,8.11,4,15.09,6,21.12,2.16,6.4,4.27,11.73,6.15,16.18C1761.67,936.46,1763.74,940.78,1765,944.08Z"/><path class="u" d="M1786.6,805.63l1.15-5.42s-8.78-9.28,2.17-17.41c0,0,4.86-3.07,6.51.45s.4,2.33,2.87,7.26,2,10.2-1.46,12.68l-2.07,3.88Z"/><path class="w" d="M1708.38,827.34c-12.59.7-20.77-9.69-20.77-9.69a99.32,99.32,0,0,0,8.79-5.47l10.79,5.48A89.67,89.67,0,0,1,1708.38,827.34Z"/><path class="u" d="M1713.74,814.42s-19.07,13.68-27.41,1.67-16.41-18.32-4.59-27.57,17.39-6.32,21.15-3S1718.48,810.55,1713.74,814.42Z"/><path class="x" d="M1704.91,774.69a30.68,30.68,0,0,0-2.23-7.86s-1.19,4.95-10.25,4.27-23.42.89-28.2,11.21a21,21,0,0,0-.82,2,24.14,24.14,0,0,1-1.07-5.72c-1.73,4.44,0,10,0,10h0c0,.16,0,.33-.07.49-2,1.69-3.68,6.94-3.68,6.94a6.3,6.3,0,0,1,3.38-3c0,8,3.22,15.89,8.94,18.23,8.36,3.41,8.29.81,16.7,6.38,0,0,2.26-2.8.72-4.68s-7.35-4.61-4.1-7.35,4.44.35,5.64-1.53-4.79-7.35,2.9-12.48S1705.59,779.3,1704.91,774.69Z"/><path class="y" d="M2152.73,1115s6.41,5.94,5.16,10.17-7,7-7.82,12.2-3.91,8-6.73,8h-13.43s-2.07-3.63,2.94-4.72,6.89-7.17,6.58-12.8a99.57,99.57,0,0,1,.47-13.15l10.64-2.5Z"/><path class="y" d="M2072.77,1145.11a2.6,2.6,0,0,1-.76.22h-35.6c.29-1.24,1.4-3.74,5.69-4.44,5.61-.91,15.33-4.17,17.5-11.34.07-.23.13-.47.18-.71,1.72-7.67,14.24,2.35,14.24,2.35s0,.31.09.82C2074.4,1134.82,2075.15,1143.93,2072.77,1145.11Z"/><path class="z" d="M2043.59,940s1.9,23.72,4.14,52.23c3,38.73,6.68,86.31,7.05,95.32.62,15.65,3.13,40.69,3.13,40.69s5.94,6,17.84,3.44c0,0,10.6-35.74,13.62-73.55.05-.62.1-1.24.14-1.87,2.82-38.49,7.2-119.55,7.2-119.55Z"/><path class="aa" d="M2043.59,940s1.9,23.72,4.14,52.23l41.64,65.9c.05-.62.1-1.24.14-1.87,2.82-38.49,7.2-119.55,7.2-119.55Z"/><path class="z" d="M2052.27,942.86s34.27,85.9,56.8,126.27,29.58,51.64,29.58,51.64,12.91-5.17,14.08-8.69c0,0-8.62-77.93-23.71-96.93-8.52-10.74-18.54-43-19-54.22s-3.05-33.57-3.05-33.57Z"/><path class="ab" d="M2055.81,804.32s-17.1,22.55-31.07,23.93c0,0,1.65-8.11,5.7-13.28-1.14-1.77-2.14-3.39-3-4.84a83.14,83.14,0,0,1-4.1-7.71l6.24-11.75,4.23-8a40.74,40.74,0,0,0,4,7.67C2045.29,801.75,2055.81,804.32,2055.81,804.32Z"/><path class="ac" d="M2037.77,790.36s0,12.44-10.32,19.77a83.14,83.14,0,0,1-4.1-7.71l6.24-11.75A26.67,26.67,0,0,1,2037.77,790.36Z"/><path class="ab" d="M2019.46,803.73s21.78-5.32,18.25-18.83-3.09-23.3-17.14-20.47-15.4,8.68-15.32,13.48S2013.7,804.77,2019.46,803.73Z"/><path class="s" d="M2110.4,938.9c-10,10.9-74.54,18.67-72.69,10.46a91.36,91.36,0,0,0,2.16-16.4c.08-1.81.11-3.72.09-5.76-.14-11.13-2-25.68-8.3-43.05-.46-1.3-1-2.62-1.47-3.95a128.15,128.15,0,0,1-6.09-20.61c-2.66-13.08-2.82-25.28.4-32.81,0,0,4.21-12.07,4.23-12.11,13.85-4.31,17.84-15,17.84-15s43.48,13.9,60.56,76.58C2107.13,876.21,2119.06,929.41,2110.4,938.9Z"/><path class="ad" d="M2039.87,933c.08-1.81.11-3.72.09-5.76-.14-11.13-2-25.68-8.3-43.05,2.61-8.56,5.56-15.57,8.19-18.56,10.65-12.13,16.1-13.53,16.1-13.53S2061.82,910,2039.87,933Z"/><path class="c" d="M2043.84,761.48c.19-.27.65-.52,1.72-.7a4.35,4.35,0,0,0-2.08-.35c-.39-1.5-1.48-4.1-4.13-4.47a3.28,3.28,0,0,1,1.83,2.19c-3.33-2.78-10-4.34-27.53-1-23.13,4.44-13.77,18.76-10.55,20.24s10.28-4.32,16-4.49,7.66,8,9.7,8.9,1.06-1,3.51-2.47,3.18,2.85,2.75,5.76,3.52,6.25,3.52,6.25l3.16-4.32c3.15-4.32,4.7-21.31,2.68-24.67C2044.2,762.08,2044,761.78,2043.84,761.48Z"/><path class="ab" d="M1980,919.92s-7.84.43-9.52,1-7,4.75-6.93,5.26.45.82,1.5.61,4.34-1.6,4.24-1.12-9.38,5.1-9,7.11,6.83,4.19,11.44,3.19,14-8.11,14.57-8.63S1980,919.92,1980,919.92Z"/><path class="s" d="M1980.52,923.93c-2.9-3.74-1.31-5.75-1.31-5.75s35-34,37.65-37.33,11.38-52.91,11.38-52.91,5-11.93,15.92-15.27c9.51-2.91,14.45-6.87,19.44-1.71a20.83,20.83,0,0,1,3.9,23.14c-8,17.47-24.16,52.18-29.31,58.37-9.94,11.94-41.68,31.1-49.92,36a3.2,3.2,0,0,1-3.77-.37A33.79,33.79,0,0,1,1980.52,923.93Z"/><path class="v" d="M1799.14,804a9.65,9.65,0,0,0-5.86-3.63l-7.62-1.74s-26.17,43.51-28.33,47.87q-.7,1.44-2.49,4.61a4.07,4.07,0,0,1-4.59,1.93c-10.12-2.71-21.24-6.18-29.53-10a27.78,27.78,0,0,0-28.4,3.06l-6.73,5.1a12.29,12.29,0,0,0,4.16,21.65c23.76,6.51,58.42,10.32,72.91,12,6.56.76,14.54-15.52,18.5-24.71h0C1789.59,841,1799.14,804,1799.14,804Z"/><path class="ae" d="M2748.61,1136.86a87.1,87.1,0,0,1-16.11-1.29c6.13-4.51,19-13.85,29.52-20.42,14.31-8.93,22.43-24,2.24-26.54-17.2-2.19-30.72,35.35-34.36,46.51-2.35-.43-4.65-.91-6.88-1.39,2.77-7.94,8.82-24.76,14.57-36.49,7.75-15.84,35.17-42.59,7.75-45.63-24.39-2.72-30.86,64.93-32,80-4.9-1-9.18-1.74-12.57-1.48-7.8.57-15.27,9.07-10.85,12.81h82.34C2769.6,1140.68,2762.71,1136.53,2748.61,1136.86Z"/><path class="ae" d="M296,1128.86h0c-12.48-30.11-39.37-87.77-59.82-80.95-20.21,6.73,25.23,56.67,50.81,82.74-5.08,1.07-9.68,2.12-13.91,3.1-19.72-18-52.28-47.38-55.25-35.27-2.61,10.61,25.33,26.64,46.71,37.2-13.31,2.9-23.38,4.28-35.87,1.44-20.58-4.68-31.09,9.28-31.09,9.28H354.62S328.75,1122.69,296,1128.86Z"/><rect class="af" y="1141.89" width="2871.8" height="7.62" rx="3.25"/></svg>