<?xml version="1.0" encoding="utf-8"?>
<!-- Generator: Adobe Illustrator 25.2.3, SVG Export Plug-In . SVG Version: 6.00 Build 0)  -->
<svg version="1.1" id="Capa_1" xmlns="http://www.w3.org/2000/svg" xmlns:xlink="http://www.w3.org/1999/xlink" x="0px" y="0px"
	 viewBox="0 0 364.8 161.2" style="enable-background:new 0 0 364.8 161.2;" xml:space="preserve">
<style type="text/css">
	.st0{fill:#FFFFFF;}
	.st1{fill:#898682;}
</style>
<polygon class="st0" points="8.2,8.2 8.2,153 156.8,153 156.8,161.2 0,161.2 0,0 156.8,0 156.8,8.2 "/>
<path class="st1" d="M161.9,58h34.9v7.2H169v20.6h26V93h-26v28.4h-7.1L161.9,58z"/>
<path class="st1" d="M204.1,121.4V54.5h6.9v66.9H204.1z"/>
<path class="st1" d="M256.7,98.2c0,13.3-6.5,24.3-18.6,24.3c-11.3,0-18.2-10.2-18.2-24.1c0-13.7,6.7-24.3,18.6-24.3
	C249.5,74.1,256.7,83.7,256.7,98.2z M226.9,98.3c0,10.1,4.3,17.5,11.4,17.5s11.3-7,11.3-17.5s-4.1-17.6-11.5-17.6
	S226.9,87.7,226.9,98.3z"/>
<path class="st1" d="M300.1,98.2c0,13.3-6.5,24.3-18.6,24.3c-11.3,0-18.2-10.2-18.2-24.1c0-13.7,6.7-24.3,18.6-24.3
	C292.9,74.1,300.1,83.7,300.1,98.2z M270.3,98.3c0,10.1,4.3,17.5,11.5,17.5s11.3-7,11.3-17.5s-4-17.6-11.5-17.6
	S270.3,87.7,270.3,98.3z"/>
<path class="st1" d="M309,87.7c0-6.5,0-10.1-0.1-12.6h6.7c0.1,1.3,0.2,4.9,0.2,9.4c2.1-6.2,6.8-10.3,13.3-10.5v8
	c-8.2,0.2-13.4,5.2-13.4,16.9v22.4H309V87.7z"/>
<path class="st1" d="M340,108.2c1.1,5,4.3,8,9.7,8c5.8,0,8.1-2.9,8.1-7.1s-1.8-6.3-9.4-8.5c-11.3-3.2-13.7-7.3-13.7-13.5
	c0-6.6,4.1-13,14.3-13s14.4,7,15,13.4h-6.6c-0.6-3-2.5-7.2-8.6-7.2c-5.5,0-7.2,3.1-7.2,6.1c0,3.5,1.6,5.2,8.9,7.2
	c12,3.3,14.4,8,14.4,14.9c0,8.1-5.5,14-15.4,14c-10.2,0-15.3-6-16.3-14.3L340,108.2z"/>
<ellipse class="st0" cx="38.7" cy="61" rx="13" ry="12"/>
<polygon class="st0" points="55.2,108.1 55.2,121.4 22.2,121.4 22.2,108.1 27.3,108.1 27.3,89 22.2,89 22.2,76.7 52.3,76.7 
	52.3,108.1 "/>
<path class="st0" d="M157.4,108.1v13.3H130V95.5c-0.6-3.1-0.9-4.4-4.5-4.8c-2.7-0.3-5.2,1.8-6.3,3v14.3h4.3v13.3H96V95.5
	c-0.6-3.1-0.8-4.4-4.5-4.8s-7.1,3.7-7.1,3.7v13.6h4.3v13.3H57.5v-13.3h3.7V90.8h-3.7V76.7h26.8v7.1c0,0,5.4-8.5,18.8-7.9
	c9.4,0.4,13.7,6,15.3,9.8c3.9-6.5,11.1-10.3,18.7-9.8c13.3,0.5,16.4,11.8,15.9,13.2v19.1H157.4z"/>
</svg>
