<svg xmlns="http://www.w3.org/2000/svg" viewBox="0 0 364.84 161.19"><defs><style>.a{fill:#fff;}.b{fill:#898682;}.c{fill:#082524;}</style></defs><polygon class="a" points="8.2 8.19 8.2 153 156.76 153 156.76 161.19 0 161.19 0 0 156.76 0 156.76 8.19 8.2 8.19"/><path class="b" d="M161.88,58h34.9v7.2H169V85.75H195V93H169V121.4h-7.09Z"/><path class="b" d="M204.14,121.4V54.46H211V121.4Z"/><path class="b" d="M256.66,98.19c0,13.32-6.54,24.3-18.64,24.3-11.34,0-18.2-10.25-18.2-24.14,0-13.65,6.72-24.28,18.65-24.28C249.46,74.07,256.66,83.68,256.66,98.19Zm-29.8.09c0,10.14,4.33,17.54,11.44,17.54s11.32-7,11.32-17.51-4.05-17.56-11.47-17.56S226.86,87.73,226.86,98.28Z"/><path class="b" d="M300.06,98.19c0,13.32-6.54,24.3-18.64,24.3-11.34,0-18.2-10.25-18.2-24.14,0-13.65,6.72-24.28,18.65-24.28C292.86,74.07,300.06,83.68,300.06,98.19Zm-29.8.09c0,10.14,4.33,17.54,11.45,17.54S293,108.8,293,98.31s-4-17.56-11.47-17.56S270.26,87.73,270.26,98.28Z"/><path class="b" d="M309,87.73c0-6.47-.05-10.1-.08-12.56h6.7c.11,1.29.21,4.92.21,9.43,2.07-6.25,6.79-10.29,13.34-10.53v8C321,82.31,315.8,87.26,315.8,99V121.4H309Z"/><path class="b" d="M340,108.17c1.13,5,4.34,8,9.7,8,5.82,0,8.1-2.93,8.1-7.13s-1.82-6.33-9.37-8.47c-11.32-3.22-13.68-7.26-13.68-13.53,0-6.55,4.12-13,14.29-13S363.43,81,364,87.42h-6.61c-.57-3-2.51-7.15-8.59-7.15-5.55,0-7.2,3.11-7.2,6.14,0,3.46,1.63,5.17,8.89,7.19,12,3.33,14.4,8,14.4,14.87,0,8.11-5.5,14-15.36,14-10.25,0-15.27-6-16.28-14.32Z"/><ellipse class="c" cx="38.74" cy="60.96" rx="12.95" ry="12.04"/><polygon class="c" points="55.24 108.08 55.24 121.39 22.2 121.39 22.2 108.08 27.33 108.08 27.33 88.99 22.2 88.99 22.2 76.71 52.3 76.71 52.3 108.08 55.24 108.08"/><path class="c" d="M157.36,108.08v13.31H130V95.54c-.6-3.08-.86-4.36-4.53-4.75-2.65-.27-5.15,1.8-6.34,3v14.33h4.28v13.31H96V95.54c-.59-3.08-.85-4.36-4.52-4.75s-7.07,3.72-7.07,3.72v13.57h4.29v13.31H57.55V108.08h3.72V90.79H57.55V76.71H84.38v7.05s5.44-8.46,18.76-7.94c9.36.36,13.69,6,15.26,9.84a20.44,20.44,0,0,1,18.73-9.84c13.32.51,16.43,11.75,15.94,13.17v19.09Z"/></svg>